//Event file generated from Sappy .s format.
        #include "MPlayDef.event"

        #define    Manafields_grp  MusicVoices
        #define    Manafields_pri  0
        #define    Manafields_rev  0
        #define    Manafields_key  0

        // .rodata
        // Manafields
        ALIGN 4

//****************** Track 0 (Midi-Chn.0) ******************//

Manafields_0:
        BYTE   KEYSH   Manafields_key+0
// 000   ----------------------------------------
        BYTE   TEMPO   140/2
        BYTE           VOICE   32
        BYTE   W04
        BYTE           VOL     47
        BYTE   W92
// 001   ----------------------------------------
        BYTE   W96
// 002   ----------------------------------------
        BYTE   W96
// 003   ----------------------------------------
        BYTE   W96
// 004   ----------------------------------------
        BYTE   W96
// 005   ----------------------------------------
        BYTE   W96
// 006   ----------------------------------------
        BYTE   W96
// 007   ----------------------------------------
        BYTE   W96
// 008   ----------------------------------------
        BYTE   W96
// 009   ----------------------------------------
        BYTE   W96
// 010   ----------------------------------------
        BYTE   W96
// 011   ----------------------------------------
        BYTE   W96
// 012   ----------------------------------------
        BYTE   W96
// 013   ----------------------------------------
        BYTE   W96
// 014   ----------------------------------------
        BYTE   W96
// 015   ----------------------------------------
        BYTE   W96
// 016   ----------------------------------------
        BYTE   W96
// 017   ----------------------------------------
        BYTE   W96
// 018   ----------------------------------------
        BYTE   W96
// 019   ----------------------------------------
        BYTE   W96
// 020   ----------------------------------------
        BYTE   W96
// 021   ----------------------------------------
        BYTE   W96
// 022   ----------------------------------------
        BYTE   W96
// 023   ----------------------------------------
        BYTE   W96
// 024   ----------------------------------------
        BYTE   W96
// 025   ----------------------------------------
        BYTE   W96
// 026   ----------------------------------------
        BYTE   W96
// 027   ----------------------------------------
        BYTE   W96
// 028   ----------------------------------------
        BYTE   W96
// 029   ----------------------------------------
        BYTE   W96
// 030   ----------------------------------------
        BYTE   W96
// 031   ----------------------------------------
        BYTE   W96
// 032   ----------------------------------------
        BYTE   W96
// 033   ----------------------------------------
        BYTE   W96
// 034   ----------------------------------------
        BYTE   W96
// 035   ----------------------------------------
        BYTE   W96
// 036   ----------------------------------------
        BYTE   W96
// 037   ----------------------------------------
        BYTE   W96
// 038   ----------------------------------------
        BYTE   W96
// 039   ----------------------------------------
        BYTE   W96
// 040   ----------------------------------------
        BYTE   W96
// 041   ----------------------------------------
        BYTE   W96
// 042   ----------------------------------------
        BYTE   W96
// 043   ----------------------------------------
        BYTE   W96
// 044   ----------------------------------------
        BYTE   W96
// 045   ----------------------------------------
        BYTE   W96
// 046   ----------------------------------------
        BYTE   W96
// 047   ----------------------------------------
        BYTE   W96
// 048   ----------------------------------------
        BYTE   W96
// 049   ----------------------------------------
        BYTE   W96
// 050   ----------------------------------------
        BYTE   W96
// 051   ----------------------------------------
        BYTE   W96
// 052   ----------------------------------------
        BYTE   W96
// 053   ----------------------------------------
        BYTE   W96
// 054   ----------------------------------------
        BYTE   W96
// 055   ----------------------------------------
        BYTE   W96
// 056   ----------------------------------------
Manafields_0_56:
        BYTE           N05     Dn3   v108
        BYTE   W12
        BYTE           N07     Gn4
        BYTE   W12
        BYTE           N06     An4   v104
        BYTE   W12
        BYTE                   Gn2   v108
        BYTE   W12
        BYTE           N07     Fn4   v104
        BYTE   W12
        BYTE           N06     Gn4
        BYTE   W12
        BYTE           N07     En5
        BYTE           N05     En3   v100
        BYTE   W12
        BYTE           N06     Cn3   v088
        BYTE   W12
        BYTE   PEND
// 057   ----------------------------------------
Manafields_0_57:
        BYTE           N06     Dn3   v100
        BYTE   W12
        BYTE           N07     Gn4   v104
        BYTE   W12
        BYTE           N04     An4   v096
        BYTE   W12
        BYTE           N06     Fn5   v104
        BYTE           N07     Gn2
        BYTE   W12
        BYTE           N05     En5   v100
        BYTE   W12
        BYTE           N06     Cn5   v092
        BYTE   W12
        BYTE           N07     Fn4   v104
        BYTE           N05     Fn2   v108
        BYTE   W12
        BYTE           N08     Gn4   v104
        BYTE           N05     Cn3   v100
        BYTE   W12
        BYTE   PEND
// 058   ----------------------------------------
Manafields_0_58:
        BYTE           N05     Dn3   v108
        BYTE   W12
        BYTE           N07     Gn4   v104
        BYTE   W12
        BYTE                   An4
        BYTE   W12
        BYTE           N06     Gn2   v108
        BYTE   W12
        BYTE           N07     Fn4   v100
        BYTE   W12
        BYTE           N06     Gn4   v096
        BYTE   W12
        BYTE                   En5   v108
        BYTE           N05     En3   v100
        BYTE   W12
        BYTE           N06     Cn3   v088
        BYTE   W12
        BYTE   PEND
// 059   ----------------------------------------
Manafields_0_59:
        BYTE           N04     Dn3   v096
        BYTE   W12
        BYTE           N06     Gn4
        BYTE   W12
        BYTE           N04     An4   v092
        BYTE   W12
        BYTE           N06     Fn5   v100
        BYTE           N05     Gn2
        BYTE   W12
        BYTE           N06     En5   v096
        BYTE   W12
        BYTE                   Cn5   v100
        BYTE           N06     Fn3   v092
        BYTE   W12
        BYTE                   Fn4   v104
        BYTE           N05     Fn2   v100
        BYTE   W12
        BYTE           N06     Gn4
        BYTE           N05     Cn3   v088
        BYTE   W12
        BYTE   PEND
// 060   ----------------------------------------
        BYTE   PATT
         POIN2  Manafields_0_56
// 061   ----------------------------------------
        BYTE   PATT
         POIN2  Manafields_0_57
// 062   ----------------------------------------
        BYTE   PATT
         POIN2  Manafields_0_58
// 063   ----------------------------------------
        BYTE   PATT
         POIN2  Manafields_0_59
// 064   ----------------------------------------
        BYTE   FINE

//****************** Track 1 (Midi-Chn.1) ******************//

Manafields_1:
        BYTE   KEYSH   Manafields_key+0
// 000   ----------------------------------------
        BYTE           VOICE   24
        BYTE           VOL     65
        BYTE           N13     Gn2   v104
        BYTE           N36     Dn2   v108
        BYTE   W12
        BYTE           N13     Cn3   v060
        BYTE   W12
        BYTE                   Fn3   v068
        BYTE   W12
        BYTE           N14     Dn3   v072
        BYTE           N44     Gn1   v104
        BYTE   W12
        BYTE           N12     An2   v072
        BYTE   W12
        BYTE                   Cn3   v056
        BYTE   W12
        BYTE           N24     Gn3   v092
        BYTE           N24     Bn2   v080
        BYTE           N08     En2   v092
        BYTE   W12
        BYTE                   Cn2   v080
        BYTE   W12
// 001   ----------------------------------------
Manafields_1_1:
        BYTE           N14     Gn2   v100
        BYTE           N32     Dn2
        BYTE   W12
        BYTE           N12     Cn3   v060
        BYTE   W12
        BYTE           N13     Fn3   v084
        BYTE   W12
        BYTE           N14     Dn3   v092
        BYTE           N44     Gn1   v100
        BYTE   W12
        BYTE           N12     An2   v084
        BYTE   W12
        BYTE           N11     Cn3   v064
        BYTE   W12
        BYTE           N24     Gn3   v092
        BYTE           N24     Bn2   v072
        BYTE           N10     En2   v100
        BYTE   W12
        BYTE           N08     Cn2   v092
        BYTE   W12
        BYTE   PEND
// 002   ----------------------------------------
Manafields_1_2:
        BYTE           N14     Gn2   v100
        BYTE           N36     Dn2
        BYTE   W12
        BYTE           N13     Cn3   v076
        BYTE   W12
        BYTE                   Fn3   v092
        BYTE   W12
        BYTE           N14     Dn3
        BYTE           N44     Gn1   v104
        BYTE   W12
        BYTE           N11     An2   v088
        BYTE   W12
        BYTE                   Cn3   v056
        BYTE   W12
        BYTE           N24     Gn3   v092
        BYTE           N24     Bn2   v072
        BYTE           N10     En2   v100
        BYTE   W12
        BYTE           N08     Cn2   v092
        BYTE   W12
        BYTE   PEND
// 003   ----------------------------------------
Manafields_1_3:
        BYTE           N14     Gn2   v100
        BYTE           N32     Dn2   v104
        BYTE   W12
        BYTE           N14     Cn3   v072
        BYTE   W12
        BYTE           N15     Fn3   v092
        BYTE   W11
        BYTE           N24     Dn3   v088
        BYTE   W01
        BYTE           N36     Gn1   v100
        BYTE   W12
        BYTE           N12     An2   v080
        BYTE   W12
        BYTE           N15     Gn3   v092
        BYTE           N12     Cn3   v044
        BYTE   W12
        BYTE           N13     En3   v100
        BYTE           N13     Bn2   v080
        BYTE           N10     En2   v096
        BYTE   W12
        BYTE           N14     Cn3
        BYTE           N09     Cn2
        BYTE   W12
        BYTE   PEND
// 004   ----------------------------------------
Manafields_1_4:
        BYTE           N13     Gn2   v104
        BYTE           N36     Dn2   v108
        BYTE   W12
        BYTE           N13     Cn3   v060
        BYTE   W12
        BYTE                   Fn3   v068
        BYTE   W12
        BYTE           N14     Dn3   v072
        BYTE           N44     Gn1   v104
        BYTE   W12
        BYTE           N12     An2   v072
        BYTE   W12
        BYTE                   Cn3   v056
        BYTE   W12
        BYTE           N24     Gn3   v092
        BYTE           N24     Bn2   v080
        BYTE           N08     En2   v092
        BYTE   W12
        BYTE                   Cn2   v080
        BYTE   W12
        BYTE   PEND
// 005   ----------------------------------------
        BYTE   PATT
         POIN2  Manafields_1_1
// 006   ----------------------------------------
        BYTE   PATT
         POIN2  Manafields_1_2
// 007   ----------------------------------------
        BYTE   PATT
         POIN2  Manafields_1_3
// 008   ----------------------------------------
        BYTE   PATT
         POIN2  Manafields_1_4
// 009   ----------------------------------------
        BYTE   PATT
         POIN2  Manafields_1_1
// 010   ----------------------------------------
        BYTE   PATT
         POIN2  Manafields_1_2
// 011   ----------------------------------------
Manafields_1_11:
        BYTE           N14     Gn2   v100
        BYTE           N32     Dn2   v104
        BYTE   W12
        BYTE           N14     Cn3   v072
        BYTE   W12
        BYTE           N15     Fn3   v092
        BYTE   W11
        BYTE           N24     Dn3   v088
        BYTE   W01
        BYTE           N36     Gn1   v100
        BYTE   W12
        BYTE           N12     An2   v080
        BYTE   W12
        BYTE           N14     Gn3   v092
        BYTE           N12     Cn3   v044
        BYTE   W12
        BYTE           N13     En3   v100
        BYTE           N13     Bn2   v080
        BYTE           N10     En2   v096
        BYTE   W12
        BYTE           N14     Cn3
        BYTE           N09     Cn2
        BYTE   W12
        BYTE   PEND
// 012   ----------------------------------------
        BYTE   PATT
         POIN2  Manafields_1_4
// 013   ----------------------------------------
        BYTE   PATT
         POIN2  Manafields_1_1
// 014   ----------------------------------------
        BYTE   PATT
         POIN2  Manafields_1_2
// 015   ----------------------------------------
        BYTE   PATT
         POIN2  Manafields_1_11
// 016   ----------------------------------------
Manafields_1_16:
        BYTE           N13     Gs2   v104
        BYTE           N36     Ds2   v108
        BYTE   W12
        BYTE           N13     Cs3   v060
        BYTE   W12
        BYTE                   Fs3   v068
        BYTE   W12
        BYTE           N14     Ds3   v072
        BYTE           N44     Gs1   v104
        BYTE   W12
        BYTE           N12     As2   v072
        BYTE   W12
        BYTE                   Cs3   v056
        BYTE   W12
        BYTE           N24     Gs3   v092
        BYTE           N24     Cn3   v080
        BYTE           N08     Fn2   v092
        BYTE   W12
        BYTE                   Cs2   v080
        BYTE   W12
        BYTE   PEND
// 017   ----------------------------------------
Manafields_1_17:
        BYTE           N14     Gs2   v100
        BYTE           N32     Ds2
        BYTE   W12
        BYTE           N12     Cs3   v060
        BYTE   W12
        BYTE           N13     Fs3   v084
        BYTE   W12
        BYTE           N14     Ds3   v092
        BYTE           N44     Gs1   v100
        BYTE   W12
        BYTE           N12     As2   v084
        BYTE   W12
        BYTE           N11     Cs3   v064
        BYTE   W12
        BYTE           N24     Gs3   v092
        BYTE           N24     Cn3   v072
        BYTE           N10     Fn2   v100
        BYTE   W12
        BYTE           N08     Cs2   v092
        BYTE   W12
        BYTE   PEND
// 018   ----------------------------------------
Manafields_1_18:
        BYTE           N14     Gs2   v100
        BYTE           N36     Ds2
        BYTE   W12
        BYTE           N13     Cs3   v076
        BYTE   W12
        BYTE                   Fs3   v092
        BYTE   W12
        BYTE           N14     Ds3
        BYTE           N44     Gs1   v104
        BYTE   W12
        BYTE           N11     As2   v088
        BYTE   W12
        BYTE                   Cs3   v056
        BYTE   W12
        BYTE           N24     Gs3   v092
        BYTE           N24     Cn3   v072
        BYTE           N10     Fn2   v100
        BYTE   W12
        BYTE           N08     Cs2   v092
        BYTE   W12
        BYTE   PEND
// 019   ----------------------------------------
Manafields_1_19:
        BYTE           N14     Gs2   v100
        BYTE           N32     Ds2   v104
        BYTE   W12
        BYTE           N14     Cs3   v072
        BYTE   W12
        BYTE           N15     Fs3   v092
        BYTE   W11
        BYTE           N24     Ds3   v088
        BYTE   W01
        BYTE           N36     Gs1   v100
        BYTE   W12
        BYTE           N12     As2   v080
        BYTE   W12
        BYTE           N14     Gs3   v092
        BYTE           N12     Cs3   v044
        BYTE   W12
        BYTE           N13     Fn3   v100
        BYTE           N13     Cn3   v080
        BYTE           N10     Fn2   v096
        BYTE   W12
        BYTE           N14     Cs3
        BYTE           N09     Cs2
        BYTE   W12
        BYTE   PEND
// 020   ----------------------------------------
        BYTE   PATT
         POIN2  Manafields_1_16
// 021   ----------------------------------------
        BYTE   PATT
         POIN2  Manafields_1_17
// 022   ----------------------------------------
        BYTE   PATT
         POIN2  Manafields_1_18
// 023   ----------------------------------------
        BYTE   PATT
         POIN2  Manafields_1_19
// 024   ----------------------------------------
        BYTE   PATT
         POIN2  Manafields_1_4
// 025   ----------------------------------------
        BYTE   PATT
         POIN2  Manafields_1_1
// 026   ----------------------------------------
        BYTE   PATT
         POIN2  Manafields_1_2
// 027   ----------------------------------------
        BYTE   PATT
         POIN2  Manafields_1_11
// 028   ----------------------------------------
        BYTE   PATT
         POIN2  Manafields_1_4
// 029   ----------------------------------------
        BYTE   PATT
         POIN2  Manafields_1_1
// 030   ----------------------------------------
        BYTE   PATT
         POIN2  Manafields_1_2
// 031   ----------------------------------------
        BYTE   PATT
         POIN2  Manafields_1_11
// 032   ----------------------------------------
        BYTE   PATT
         POIN2  Manafields_1_4
// 033   ----------------------------------------
        BYTE   PATT
         POIN2  Manafields_1_1
// 034   ----------------------------------------
        BYTE   PATT
         POIN2  Manafields_1_2
// 035   ----------------------------------------
        BYTE   PATT
         POIN2  Manafields_1_11
// 036   ----------------------------------------
        BYTE   PATT
         POIN2  Manafields_1_4
// 037   ----------------------------------------
        BYTE   PATT
         POIN2  Manafields_1_1
// 038   ----------------------------------------
        BYTE   PATT
         POIN2  Manafields_1_2
// 039   ----------------------------------------
        BYTE   PATT
         POIN2  Manafields_1_11
// 040   ----------------------------------------
        BYTE   PATT
         POIN2  Manafields_1_16
// 041   ----------------------------------------
        BYTE   PATT
         POIN2  Manafields_1_17
// 042   ----------------------------------------
        BYTE   PATT
         POIN2  Manafields_1_18
// 043   ----------------------------------------
        BYTE   PATT
         POIN2  Manafields_1_19
// 044   ----------------------------------------
        BYTE   PATT
         POIN2  Manafields_1_16
// 045   ----------------------------------------
        BYTE   PATT
         POIN2  Manafields_1_17
// 046   ----------------------------------------
        BYTE   PATT
         POIN2  Manafields_1_18
// 047   ----------------------------------------
        BYTE   PATT
         POIN2  Manafields_1_19
// 048   ----------------------------------------
        BYTE   PATT
         POIN2  Manafields_1_4
// 049   ----------------------------------------
        BYTE   PATT
         POIN2  Manafields_1_1
// 050   ----------------------------------------
        BYTE   PATT
         POIN2  Manafields_1_2
// 051   ----------------------------------------
        BYTE   PATT
         POIN2  Manafields_1_11
// 052   ----------------------------------------
        BYTE   PATT
         POIN2  Manafields_1_4
// 053   ----------------------------------------
        BYTE   PATT
         POIN2  Manafields_1_1
// 054   ----------------------------------------
        BYTE   PATT
         POIN2  Manafields_1_2
// 055   ----------------------------------------
        BYTE   PATT
         POIN2  Manafields_1_11
// 056   ----------------------------------------
        BYTE   W96
// 057   ----------------------------------------
        BYTE   W96
// 058   ----------------------------------------
        BYTE   W96
// 059   ----------------------------------------
        BYTE   W96
// 060   ----------------------------------------
        BYTE   W96
// 061   ----------------------------------------
        BYTE   W96
// 062   ----------------------------------------
        BYTE   W96
// 063   ----------------------------------------
        BYTE   W60
        BYTE           N12     Cn3   v088
        BYTE   W12
        BYTE           N11     Gn2   v092
        BYTE   W12
        BYTE                   En2   v096
        BYTE   W12
// 064   ----------------------------------------
        BYTE   FINE

//****************** Track 2 (Midi-Chn.2) ******************//

Manafields_2:
        BYTE   KEYSH   Manafields_key+0
// 000   ----------------------------------------
        BYTE           VOICE   73
        BYTE   W09
        BYTE           VOL     50
        BYTE   W84
        BYTE   W03
// 001   ----------------------------------------
        BYTE   W96
// 002   ----------------------------------------
        BYTE   W96
// 003   ----------------------------------------
        BYTE   W96
// 004   ----------------------------------------
        BYTE   W96
// 005   ----------------------------------------
        BYTE   W96
// 006   ----------------------------------------
        BYTE   W96
// 007   ----------------------------------------
        BYTE   W96
// 008   ----------------------------------------
Manafields_2_8:
        BYTE   W12
        BYTE           N04     Cn5   v092
        BYTE           N04     En4   v104
        BYTE   W06
        BYTE           N05     Bn4   v092
        BYTE           N04     Dn4   v104
        BYTE   W06
        BYTE           TIE     Cn5   v120
        BYTE           TIE     En4   v108
        BYTE   W72
        BYTE   PEND
// 009   ----------------------------------------
Manafields_2_9:
        BYTE   W32
        BYTE   W02
        BYTE           EOT     En4
        BYTE   W01
        BYTE                   Cn5
        BYTE   W01
        BYTE           N13     Bn4   v100
        BYTE           N11     Dn4   v096
        BYTE   W12
        BYTE           N18     Cn5   v104
        BYTE           N17     En4
        BYTE   W16
        BYTE           N18     Gn4
        BYTE   W01
        BYTE           N19     Dn5   v100
        BYTE   W17
        BYTE           N12     Dn4   v104
        BYTE   W02
        BYTE           N10     Bn4
        BYTE   W12
        BYTE   PEND
// 010   ----------------------------------------
Manafields_2_10:
        BYTE           N04     Cn5   v100
        BYTE           N04     En4   v104
        BYTE   W06
        BYTE           N05     Bn4
        BYTE           N04     Dn4
        BYTE   W06
        BYTE           TIE     An4   v092
        BYTE           TIE     Cn4   v104
        BYTE   W84
        BYTE   PEND
// 011   ----------------------------------------
Manafields_2_11:
        BYTE   W92
        BYTE   W01
        BYTE           EOT     An4
        BYTE   W01
        BYTE                   Cn4
        BYTE   W02
        BYTE   PEND
// 012   ----------------------------------------
Manafields_2_12:
        BYTE   W12
        BYTE           N05     An4   v104
        BYTE           N05     Cn4   v108
        BYTE   W06
        BYTE           N06     Bn4   v084
        BYTE           N06     Dn4
        BYTE   W06
        BYTE                   Cn5   v096
        BYTE           N05     En4
        BYTE   W06
        BYTE                   Dn5   v100
        BYTE           N04     Fn4   v072
        BYTE   W06
        BYTE           N96     Cn5   v096
        BYTE           N92     En4
        BYTE   W60
        BYTE   PEND
// 013   ----------------------------------------
Manafields_2_13:
        BYTE   W32
        BYTE   W02
        BYTE           N12     Bn4   v092
        BYTE           N12     Dn4   v096
        BYTE   W13
        BYTE           N17     En5   v104
        BYTE           N16     Gn4
        BYTE   W17
        BYTE           N17     En4   v100
        BYTE   W01
        BYTE           N18     Cn5   v096
        BYTE   W17
        BYTE           N12     Dn4
        BYTE   W02
        BYTE           N11     Bn4   v100
        BYTE   W10
        BYTE           N04     En4   v104
        BYTE   W02
        BYTE   PEND
// 014   ----------------------------------------
Manafields_2_14:
        BYTE           N05     Cn5   v092
        BYTE   W06
        BYTE           N06     Bn4   v100
        BYTE           N06     Dn4   v104
        BYTE   W06
        BYTE           TIE     An4   v100
        BYTE           TIE     Cn4
        BYTE   W84
        BYTE   PEND
// 015   ----------------------------------------
Manafields_2_15:
        BYTE   W76
        BYTE           EOT     An4
        BYTE   W11
        BYTE                   Cn4
        BYTE   W09
        BYTE   PEND
// 016   ----------------------------------------
Manafields_2_16:
        BYTE           N80     Fs5   v096
        BYTE   W84
        BYTE           N06     Fn5   v088
        BYTE   W06
        BYTE           N05     Fs5   v092
        BYTE   W06
        BYTE   PEND
// 017   ----------------------------------------
Manafields_2_17:
        BYTE           N84     Cs5   v096
        BYTE   W84
        BYTE           N06     Cn5   v092
        BYTE   W06
        BYTE           N05     Cs5   v096
        BYTE   W06
        BYTE   PEND
// 018   ----------------------------------------
Manafields_2_18:
        BYTE           N80     Gs4   v096
        BYTE   W84
        BYTE           N10     Fs4   v092
        BYTE   W12
        BYTE   PEND
// 019   ----------------------------------------
Manafields_2_19:
        BYTE           N12     Gs4   v096
        BYTE   W12
        BYTE           N10     Cs5   v088
        BYTE   W12
        BYTE           N12     Ds5
        BYTE   W12
        BYTE           N11     Cn5
        BYTE   W12
        BYTE                   Cs5
        BYTE   W12
        BYTE           N10     Ds5   v084
        BYTE   W12
        BYTE           N11     Gs5
        BYTE   W12
        BYTE           N12     Fn5   v080
        BYTE   W12
        BYTE   PEND
// 020   ----------------------------------------
Manafields_2_20:
        BYTE           N80     Fs5   v092
        BYTE   W84
        BYTE           N06     Fn5   v088
        BYTE   W06
        BYTE           N05     Fs5
        BYTE   W06
        BYTE   PEND
// 021   ----------------------------------------
Manafields_2_21:
        BYTE           N80     Ds5   v092
        BYTE   W84
        BYTE           N05     Cs5
        BYTE   W06
        BYTE           N06     Fs5   v084
        BYTE   W06
        BYTE   PEND
// 022   ----------------------------------------
        BYTE           N96     Gs5
        BYTE   W96
// 023   ----------------------------------------
Manafields_2_23:
        BYTE           N13     As5   v092
        BYTE   W12
        BYTE           N12     Gs5   v088
        BYTE   W12
        BYTE                   Fs5   v096
        BYTE   W12
        BYTE           N13     Gs5
        BYTE   W12
        BYTE           N12     Fs5   v084
        BYTE   W12
        BYTE           N11     Fn5   v088
        BYTE   W12
        BYTE           N12     Ds5   v084
        BYTE   W12
        BYTE                   Cs5   v092
        BYTE   W12
        BYTE   PEND
// 024   ----------------------------------------
Manafields_2_24:
        BYTE           N11     Dn5   v096
        BYTE   W12
        BYTE           N12     An4   v100
        BYTE   W12
        BYTE           N11     Fn4   v104
        BYTE   W12
        BYTE           N10     Cn5   v100
        BYTE   W12
        BYTE                   En4
        BYTE   W12
        BYTE                   Fn4   v104
        BYTE   W12
        BYTE           N09     Bn4   v092
        BYTE   W12
        BYTE           N13     Gn4   v096
        BYTE   W12
        BYTE   PEND
// 025   ----------------------------------------
Manafields_2_25:
        BYTE           N10     An4   v100
        BYTE   W12
        BYTE           N11     Dn4
        BYTE   W12
        BYTE           N09     En4
        BYTE   W12
        BYTE           N11     Gn4   v104
        BYTE   W12
        BYTE           N12     Cn4
        BYTE   W12
        BYTE                   Dn4   v100
        BYTE   W12
        BYTE           N10     Fn4   v104
        BYTE   W12
        BYTE           N11     An4   v100
        BYTE   W12
        BYTE   PEND
// 026   ----------------------------------------
        BYTE   PATT
         POIN2  Manafields_2_24
// 027   ----------------------------------------
Manafields_2_27:
        BYTE           N10     An4   v100
        BYTE   W12
        BYTE           N11     Dn4
        BYTE   W12
        BYTE           N09     En4
        BYTE   W12
        BYTE           N11     Gn4   v104
        BYTE   W12
        BYTE                   Cn4
        BYTE   W12
        BYTE           N10     Dn4   v100
        BYTE   W12
        BYTE                   Bn3
        BYTE   W12
        BYTE           N14     Gn3   v104
        BYTE   W12
        BYTE   PEND
// 028   ----------------------------------------
        BYTE   PATT
         POIN2  Manafields_2_24
// 029   ----------------------------------------
        BYTE   PATT
         POIN2  Manafields_2_25
// 030   ----------------------------------------
        BYTE   PATT
         POIN2  Manafields_2_24
// 031   ----------------------------------------
        BYTE   PATT
         POIN2  Manafields_2_25
// 032   ----------------------------------------
        BYTE   PATT
         POIN2  Manafields_2_8
// 033   ----------------------------------------
        BYTE   PATT
         POIN2  Manafields_2_9
// 034   ----------------------------------------
        BYTE   PATT
         POIN2  Manafields_2_10
// 035   ----------------------------------------
        BYTE   PATT
         POIN2  Manafields_2_11
// 036   ----------------------------------------
        BYTE   PATT
         POIN2  Manafields_2_12
// 037   ----------------------------------------
        BYTE   PATT
         POIN2  Manafields_2_13
// 038   ----------------------------------------
        BYTE   PATT
         POIN2  Manafields_2_14
// 039   ----------------------------------------
        BYTE   PATT
         POIN2  Manafields_2_15
// 040   ----------------------------------------
        BYTE   PATT
         POIN2  Manafields_2_16
// 041   ----------------------------------------
        BYTE   PATT
         POIN2  Manafields_2_17
// 042   ----------------------------------------
        BYTE   PATT
         POIN2  Manafields_2_18
// 043   ----------------------------------------
        BYTE   PATT
         POIN2  Manafields_2_19
// 044   ----------------------------------------
        BYTE   PATT
         POIN2  Manafields_2_20
// 045   ----------------------------------------
        BYTE   PATT
         POIN2  Manafields_2_21
// 046   ----------------------------------------
        BYTE           N96     Gs5   v084
        BYTE   W96
// 047   ----------------------------------------
        BYTE   PATT
         POIN2  Manafields_2_23
// 048   ----------------------------------------
        BYTE   PATT
         POIN2  Manafields_2_24
// 049   ----------------------------------------
        BYTE   PATT
         POIN2  Manafields_2_25
// 050   ----------------------------------------
        BYTE   PATT
         POIN2  Manafields_2_24
// 051   ----------------------------------------
        BYTE   PATT
         POIN2  Manafields_2_27
// 052   ----------------------------------------
        BYTE   PATT
         POIN2  Manafields_2_24
// 053   ----------------------------------------
        BYTE   PATT
         POIN2  Manafields_2_25
// 054   ----------------------------------------
        BYTE   PATT
         POIN2  Manafields_2_24
// 055   ----------------------------------------
        BYTE   PATT
         POIN2  Manafields_2_25
// 056   ----------------------------------------
        BYTE   W96
// 057   ----------------------------------------
        BYTE   W96
// 058   ----------------------------------------
        BYTE   W96
// 059   ----------------------------------------
        BYTE   W96
// 060   ----------------------------------------
        BYTE   W96
// 061   ----------------------------------------
        BYTE   W96
// 062   ----------------------------------------
        BYTE   W96
// 063   ----------------------------------------
        BYTE   W96
// 064   ----------------------------------------
        BYTE   FINE

//****************** Track 3 (Midi-Chn.3) ******************//

Manafields_3:
        BYTE   KEYSH   Manafields_key+0
// 000   ----------------------------------------
        BYTE           VOICE   91
        BYTE   W15
        BYTE           VOL     47
        BYTE   W80
        BYTE   W01
// 001   ----------------------------------------
        BYTE   W96
// 002   ----------------------------------------
        BYTE   W96
// 003   ----------------------------------------
        BYTE   W96
// 004   ----------------------------------------
        BYTE   W96
// 005   ----------------------------------------
        BYTE   W96
// 006   ----------------------------------------
        BYTE   W96
// 007   ----------------------------------------
        BYTE   W96
// 008   ----------------------------------------
Manafields_3_8:
        BYTE           TIE     Cn3   v100
        BYTE           TIE     Fn2   v108
        BYTE   W96
        BYTE   PEND
// 009   ----------------------------------------
Manafields_3_9:
        BYTE   W80
        BYTE   W01
        BYTE           EOT     Fn2
        BYTE   W01
        BYTE                   Cn3
        BYTE   W02
        BYTE           N13     Bn2   v104
        BYTE           N11     En2   v100
        BYTE   W12
        BYTE   PEND
// 010   ----------------------------------------
Manafields_3_10:
        BYTE           TIE     Cn3   v104
        BYTE           TIE     Fn2   v096
        BYTE   W96
        BYTE   PEND
// 011   ----------------------------------------
Manafields_3_11:
        BYTE   W32
        BYTE   W03
        BYTE           EOT     Fn2
        BYTE                   Cn3
        BYTE   W01
        BYTE           N09     Gn2   v104
        BYTE           N11     Cn2
        BYTE   W12
        BYTE           N12     An2
        BYTE           N12     Dn2
        BYTE   W12
        BYTE           N10     Bn2   v100
        BYTE           N13     En2   v104
        BYTE   W12
        BYTE                   Cn3   v092
        BYTE           N11     Fn2   v108
        BYTE   W12
        BYTE                   Dn3   v104
        BYTE           N10     Gn2   v112
        BYTE   W12
        BYTE   PEND
// 012   ----------------------------------------
Manafields_3_12:
        BYTE           TIE     Cn3   v104
        BYTE           TIE     Fn2
        BYTE   W96
        BYTE   PEND
// 013   ----------------------------------------
Manafields_3_13:
        BYTE   W80
        BYTE   W03
        BYTE           EOT     Fn2
        BYTE                   Cn3
        BYTE   W01
        BYTE           N11     Bn2   v100
        BYTE           N11     En2   v104
        BYTE   W12
        BYTE   PEND
// 014   ----------------------------------------
Manafields_3_14:
        BYTE           TIE     Cn3   v100
        BYTE           TIE     Fn2   v112
        BYTE   W96
        BYTE   PEND
// 015   ----------------------------------------
Manafields_3_15:
        BYTE   W32
        BYTE   W02
        BYTE           EOT     Cn3
        BYTE   W01
        BYTE                   Fn2
        BYTE   W01
        BYTE           N10     An2   v100
        BYTE           N09     Dn2   v088
        BYTE   W12
        BYTE           N12     Bn2   v104
        BYTE           N12     En2   v100
        BYTE   W12
        BYTE           N11     Cn3
        BYTE           N11     Fn2   v112
        BYTE   W12
        BYTE                   Dn3   v092
        BYTE           N11     Gn2   v100
        BYTE   W12
        BYTE                   En3
        BYTE           N13     An2   v096
        BYTE   W12
        BYTE   PEND
// 016   ----------------------------------------
Manafields_3_16:
        BYTE           N80     Ds3   v096
        BYTE           N80     Gs2   v100
        BYTE   W84
        BYTE           N10     Fn3   v108
        BYTE           N10     As2   v096
        BYTE   W12
        BYTE   PEND
// 017   ----------------------------------------
Manafields_3_17:
        BYTE           N80     Cs3   v096
        BYTE           N80     Fs2
        BYTE   W84
        BYTE           N10     Cn3   v100
        BYTE           N11     Fn2   v120
        BYTE   W12
        BYTE   PEND
// 018   ----------------------------------------
Manafields_3_18:
        BYTE           N80     Cs3   v096
        BYTE           N84     Fs2   v100
        BYTE   W84
        BYTE           N07     As2   v096
        BYTE           N13     Ds2   v100
        BYTE   W12
        BYTE   PEND
// 019   ----------------------------------------
        BYTE           N11     Cn3   v104
        BYTE           N11     Fn2
        BYTE   W12
        BYTE                   Gs2   v092
        BYTE           N10     Cs2   v096
        BYTE   W12
        BYTE                   As2
        BYTE           N11     Ds2   v092
        BYTE   W12
        BYTE                   Ds3   v096
        BYTE           N12     Gs2   v108
        BYTE   W12
        BYTE           N11     Fn3   v104
        BYTE           N13     As2   v092
        BYTE   W12
        BYTE           N10     Ds3   v108
        BYTE           N09     Gs2   v100
        BYTE   W12
        BYTE           N10     Cs3
        BYTE           N03     Gs2   v016
        BYTE           N11     Fs2   v092
        BYTE   W12
        BYTE           N09     Cn3   v096
        BYTE           N09     Fn2   v100
        BYTE   W12
// 020   ----------------------------------------
Manafields_3_20:
        BYTE           N84     Cs3   v100
        BYTE           N84     Fs2   v104
        BYTE   W84
        BYTE           N10     Ds3   v096
        BYTE           N10     Gs2   v104
        BYTE   W12
        BYTE   PEND
// 021   ----------------------------------------
Manafields_3_21:
        BYTE           N84     As2   v096
        BYTE           N84     Ds2
        BYTE   W84
        BYTE           N08     Cn3   v100
        BYTE           N10     Fn2   v108
        BYTE   W12
        BYTE   PEND
// 022   ----------------------------------------
Manafields_3_22:
        BYTE           N09     Cs3   v096
        BYTE           N12     Fs2   v104
        BYTE   W12
        BYTE           N22     Fn3   v096
        BYTE           N22     As2   v092
        BYTE   W24
        BYTE           N11     Ds3
        BYTE           N11     Gs2   v096
        BYTE   W12
        BYTE           N10     Cs3
        BYTE           N11     Fs2   v100
        BYTE   W12
        BYTE           N24     Ds3   v096
        BYTE           N24     Gs2   v100
        BYTE   W24
        BYTE           N09     Cn3   v096
        BYTE           N08     Fn2
        BYTE   W12
        BYTE   PEND
// 023   ----------------------------------------
Manafields_3_23:
        BYTE           N36     Cs3   v092
        BYTE           N32     Fs2   v100
        BYTE   W36
        BYTE                   Cn3   v112
        BYTE           N32     Fn2
        BYTE   W36
        BYTE           N21     As2   v096
        BYTE           N20     Ds2   v100
        BYTE   W24
        BYTE   PEND
// 024   ----------------------------------------
Manafields_3_24:
        BYTE           N32     Fn3   v108
        BYTE           N32     Cn3   v104
        BYTE   W36
        BYTE           N36     Gn3   v100
        BYTE           N36     Dn3   v108
        BYTE   W36
        BYTE           N32     An3   v104
        BYTE           N32     En3   v100
        BYTE   W24
        BYTE   PEND
// 025   ----------------------------------------
Manafields_3_25:
        BYTE   W12
        BYTE           N24     Fn3   v104
        BYTE           N24     Cn3   v100
        BYTE   W24
        BYTE           N11     Gn3
        BYTE           N10     Dn3   v096
        BYTE   W12
        BYTE           N11     Fn3   v100
        BYTE           N12     Cn3
        BYTE   W12
        BYTE           N10     En3   v096
        BYTE           N12     Bn2   v100
        BYTE   W12
        BYTE           N24     Fn3   v096
        BYTE           N24     Cn3   v100
        BYTE   W24
        BYTE   PEND
// 026   ----------------------------------------
Manafields_3_26:
        BYTE           N32     Dn3   v096
        BYTE           N36     An2   v108
        BYTE   W36
        BYTE           N24     En3   v104
        BYTE           N24     Bn2   v092
        BYTE   W24
        BYTE           N10     Cn3   v104
        BYTE           N10     Gn2   v108
        BYTE   W12
        BYTE           TIE     Dn3   v104
        BYTE           TIE     An2   v100
        BYTE   W24
        BYTE   PEND
// 027   ----------------------------------------
Manafields_3_27:
        BYTE   W84
        BYTE   W02
        BYTE           EOT     An2
        BYTE                   Dn3
        BYTE   W10
        BYTE   PEND
// 028   ----------------------------------------
        BYTE   PATT
         POIN2  Manafields_3_24
// 029   ----------------------------------------
        BYTE   PATT
         POIN2  Manafields_3_25
// 030   ----------------------------------------
        BYTE   PATT
         POIN2  Manafields_3_26
// 031   ----------------------------------------
        BYTE   PATT
         POIN2  Manafields_3_27
// 032   ----------------------------------------
        BYTE   PATT
         POIN2  Manafields_3_8
// 033   ----------------------------------------
        BYTE   PATT
         POIN2  Manafields_3_9
// 034   ----------------------------------------
        BYTE   PATT
         POIN2  Manafields_3_10
// 035   ----------------------------------------
        BYTE   PATT
         POIN2  Manafields_3_11
// 036   ----------------------------------------
        BYTE   PATT
         POIN2  Manafields_3_12
// 037   ----------------------------------------
        BYTE   PATT
         POIN2  Manafields_3_13
// 038   ----------------------------------------
        BYTE   PATT
         POIN2  Manafields_3_14
// 039   ----------------------------------------
        BYTE   PATT
         POIN2  Manafields_3_15
// 040   ----------------------------------------
        BYTE   PATT
         POIN2  Manafields_3_16
// 041   ----------------------------------------
        BYTE   PATT
         POIN2  Manafields_3_17
// 042   ----------------------------------------
        BYTE   PATT
         POIN2  Manafields_3_18
// 043   ----------------------------------------
        BYTE           N11     Cn3   v104
        BYTE           N11     Fn2
        BYTE   W12
        BYTE                   Gs2   v092
        BYTE           N10     Cs2   v096
        BYTE   W12
        BYTE                   As2
        BYTE           N11     Ds2   v092
        BYTE   W12
        BYTE                   Ds3   v096
        BYTE           N12     Gs2   v108
        BYTE   W12
        BYTE           N11     Fn3   v104
        BYTE           N13     As2   v092
        BYTE   W12
        BYTE           N10     Ds3   v108
        BYTE           N08     Gs2   v100
        BYTE   W12
        BYTE           N10     Cs3
        BYTE           N03     Gs2   v016
        BYTE           N11     Fs2   v092
        BYTE   W12
        BYTE           N09     Cn3   v096
        BYTE           N09     Fn2   v100
        BYTE   W12
// 044   ----------------------------------------
        BYTE   PATT
         POIN2  Manafields_3_20
// 045   ----------------------------------------
        BYTE   PATT
         POIN2  Manafields_3_21
// 046   ----------------------------------------
        BYTE   PATT
         POIN2  Manafields_3_22
// 047   ----------------------------------------
        BYTE   PATT
         POIN2  Manafields_3_23
// 048   ----------------------------------------
        BYTE   PATT
         POIN2  Manafields_3_24
// 049   ----------------------------------------
        BYTE   PATT
         POIN2  Manafields_3_25
// 050   ----------------------------------------
        BYTE   PATT
         POIN2  Manafields_3_26
// 051   ----------------------------------------
        BYTE   PATT
         POIN2  Manafields_3_27
// 052   ----------------------------------------
        BYTE   PATT
         POIN2  Manafields_3_24
// 053   ----------------------------------------
        BYTE   PATT
         POIN2  Manafields_3_25
// 054   ----------------------------------------
        BYTE   PATT
         POIN2  Manafields_3_26
// 055   ----------------------------------------
        BYTE   PATT
         POIN2  Manafields_3_27
// 056   ----------------------------------------
        BYTE   W96
// 057   ----------------------------------------
        BYTE   W96
// 058   ----------------------------------------
        BYTE   W96
// 059   ----------------------------------------
        BYTE   W96
// 060   ----------------------------------------
        BYTE   W96
// 061   ----------------------------------------
        BYTE   W96
// 062   ----------------------------------------
        BYTE   W96
// 063   ----------------------------------------
        BYTE   W96
// 064   ----------------------------------------
        BYTE   FINE

//****************** Track 4 (Midi-Chn.4) ******************//

Manafields_4:
        BYTE   KEYSH   Manafields_key+0
// 000   ----------------------------------------
        BYTE           VOICE   50
        BYTE   W20
        BYTE           VOL     50
        BYTE   W76
// 001   ----------------------------------------
        BYTE   W96
// 002   ----------------------------------------
        BYTE   W96
// 003   ----------------------------------------
        BYTE   W96
// 004   ----------------------------------------
        BYTE   W96
// 005   ----------------------------------------
        BYTE   W96
// 006   ----------------------------------------
        BYTE   W96
// 007   ----------------------------------------
        BYTE   W96
// 008   ----------------------------------------
        BYTE   W96
// 009   ----------------------------------------
        BYTE   W96
// 010   ----------------------------------------
        BYTE   W96
// 011   ----------------------------------------
        BYTE   W96
// 012   ----------------------------------------
        BYTE   W96
// 013   ----------------------------------------
        BYTE   W96
// 014   ----------------------------------------
        BYTE   W96
// 015   ----------------------------------------
        BYTE   W96
// 016   ----------------------------------------
Manafields_4_16:
        BYTE           N80     Fs3   v092
        BYTE   W84
        BYTE           N11     Fn3   v100
        BYTE   W12
        BYTE   PEND
// 017   ----------------------------------------
Manafields_4_17:
        BYTE           N80     Cs3   v092
        BYTE   W84
        BYTE           N12     Cn3   v096
        BYTE   W12
        BYTE   PEND
// 018   ----------------------------------------
Manafields_4_18:
        BYTE           N80     Cs3   v100
        BYTE   W84
        BYTE           N15     As2   v092
        BYTE   W12
        BYTE   PEND
// 019   ----------------------------------------
Manafields_4_19:
        BYTE           N11     Cn3   v092
        BYTE   W12
        BYTE           N12     Gs2
        BYTE   W12
        BYTE           N10     As2   v088
        BYTE   W12
        BYTE           N12     Cn3   v092
        BYTE   W12
        BYTE           N11     Gs2   v096
        BYTE   W12
        BYTE           N12     As2   v088
        BYTE   W12
        BYTE           N11     Cn3   v092
        BYTE   W12
        BYTE           N12     Cs3
        BYTE   W12
        BYTE   PEND
// 020   ----------------------------------------
Manafields_4_20:
        BYTE           N78     Fs3   v092
        BYTE   W84
        BYTE           N06     Fs3   v088
        BYTE   W06
        BYTE                   Gs3   v068
        BYTE   W06
        BYTE   PEND
// 021   ----------------------------------------
Manafields_4_21:
        BYTE           N76     As3   v096
        BYTE   W84
        BYTE           N05
        BYTE   W06
        BYTE           N06     Cn4   v100
        BYTE   W06
        BYTE   PEND
// 022   ----------------------------------------
Manafields_4_22:
        BYTE           N80     Cs4   v100
        BYTE   W78
        BYTE           N14     Cn4   v096
        BYTE   W18
        BYTE   PEND
// 023   ----------------------------------------
Manafields_4_23:
        BYTE           N10     Cs4   v092
        BYTE   W12
        BYTE           N12     Cn4   v100
        BYTE   W12
        BYTE                   As3   v096
        BYTE   W12
        BYTE           N13     Cn4   v104
        BYTE   W12
        BYTE           N12     As3   v092
        BYTE   W12
        BYTE                   Gs3   v096
        BYTE   W12
        BYTE           N10     Fs3
        BYTE   W12
        BYTE           N13     Fn3   v120
        BYTE   W12
        BYTE   PEND
// 024   ----------------------------------------
        BYTE   W96
// 025   ----------------------------------------
        BYTE   W96
// 026   ----------------------------------------
        BYTE   W96
// 027   ----------------------------------------
        BYTE   W96
// 028   ----------------------------------------
        BYTE   W96
// 029   ----------------------------------------
        BYTE   W96
// 030   ----------------------------------------
        BYTE   W96
// 031   ----------------------------------------
        BYTE   W96
// 032   ----------------------------------------
        BYTE   W96
// 033   ----------------------------------------
        BYTE   W96
// 034   ----------------------------------------
        BYTE   W96
// 035   ----------------------------------------
        BYTE   W96
// 036   ----------------------------------------
        BYTE   W96
// 037   ----------------------------------------
        BYTE   W96
// 038   ----------------------------------------
        BYTE   W96
// 039   ----------------------------------------
        BYTE   W96
// 040   ----------------------------------------
        BYTE   PATT
         POIN2  Manafields_4_16
// 041   ----------------------------------------
        BYTE   PATT
         POIN2  Manafields_4_17
// 042   ----------------------------------------
        BYTE   PATT
         POIN2  Manafields_4_18
// 043   ----------------------------------------
        BYTE   PATT
         POIN2  Manafields_4_19
// 044   ----------------------------------------
        BYTE   PATT
         POIN2  Manafields_4_20
// 045   ----------------------------------------
        BYTE   PATT
         POIN2  Manafields_4_21
// 046   ----------------------------------------
        BYTE   PATT
         POIN2  Manafields_4_22
// 047   ----------------------------------------
        BYTE   PATT
         POIN2  Manafields_4_23
// 048   ----------------------------------------
        BYTE   W96
// 049   ----------------------------------------
        BYTE   W96
// 050   ----------------------------------------
        BYTE   W96
// 051   ----------------------------------------
        BYTE   W96
// 052   ----------------------------------------
        BYTE   W96
// 053   ----------------------------------------
        BYTE   W96
// 054   ----------------------------------------
        BYTE   W96
// 055   ----------------------------------------
        BYTE   W96
// 056   ----------------------------------------
        BYTE   W96
// 057   ----------------------------------------
        BYTE   W96
// 058   ----------------------------------------
        BYTE   W96
// 059   ----------------------------------------
        BYTE   W96
// 060   ----------------------------------------
        BYTE   W96
// 061   ----------------------------------------
        BYTE   W96
// 062   ----------------------------------------
        BYTE   W96
// 063   ----------------------------------------
        BYTE   W96
// 064   ----------------------------------------
        BYTE   FINE

//****************** Track 5 (Midi-Chn.5) ******************//

Manafields_5:
        BYTE   KEYSH   Manafields_key+0
// 000   ----------------------------------------
        BYTE           VOICE   4
        BYTE   W24
        BYTE           VOL     72
        BYTE   W72
// 001   ----------------------------------------
        BYTE   W96
// 002   ----------------------------------------
        BYTE   W96
// 003   ----------------------------------------
        BYTE   W96
// 004   ----------------------------------------
        BYTE   W96
// 005   ----------------------------------------
        BYTE   W96
// 006   ----------------------------------------
        BYTE   W96
// 007   ----------------------------------------
        BYTE   W96
// 008   ----------------------------------------
        BYTE   W96
// 009   ----------------------------------------
        BYTE   W96
// 010   ----------------------------------------
        BYTE   W96
// 011   ----------------------------------------
        BYTE   W96
// 012   ----------------------------------------
        BYTE   W96
// 013   ----------------------------------------
        BYTE   W96
// 014   ----------------------------------------
        BYTE   W96
// 015   ----------------------------------------
        BYTE   W96
// 016   ----------------------------------------
        BYTE   W96
// 017   ----------------------------------------
        BYTE   W96
// 018   ----------------------------------------
        BYTE   W96
// 019   ----------------------------------------
        BYTE   W96
// 020   ----------------------------------------
        BYTE   W96
// 021   ----------------------------------------
        BYTE   W96
// 022   ----------------------------------------
        BYTE   W96
// 023   ----------------------------------------
        BYTE   W96
// 024   ----------------------------------------
        BYTE   PATT
         POIN2  Manafields_2_24
// 025   ----------------------------------------
        BYTE   PATT
         POIN2  Manafields_2_25
// 026   ----------------------------------------
        BYTE   PATT
         POIN2  Manafields_2_24
// 027   ----------------------------------------
        BYTE   PATT
         POIN2  Manafields_2_27
// 028   ----------------------------------------
        BYTE   PATT
         POIN2  Manafields_2_24
// 029   ----------------------------------------
        BYTE   PATT
         POIN2  Manafields_2_25
// 030   ----------------------------------------
        BYTE   PATT
         POIN2  Manafields_2_24
// 031   ----------------------------------------
        BYTE   PATT
         POIN2  Manafields_2_25
// 032   ----------------------------------------
        BYTE   W96
// 033   ----------------------------------------
        BYTE   W96
// 034   ----------------------------------------
        BYTE   W96
// 035   ----------------------------------------
        BYTE   W96
// 036   ----------------------------------------
        BYTE   W96
// 037   ----------------------------------------
        BYTE   W96
// 038   ----------------------------------------
        BYTE   W96
// 039   ----------------------------------------
        BYTE   W96
// 040   ----------------------------------------
        BYTE   W96
// 041   ----------------------------------------
        BYTE   W96
// 042   ----------------------------------------
        BYTE   W96
// 043   ----------------------------------------
        BYTE   W96
// 044   ----------------------------------------
        BYTE   W96
// 045   ----------------------------------------
        BYTE   W96
// 046   ----------------------------------------
        BYTE   W96
// 047   ----------------------------------------
        BYTE   W96
// 048   ----------------------------------------
        BYTE   PATT
         POIN2  Manafields_2_24
// 049   ----------------------------------------
        BYTE   PATT
         POIN2  Manafields_2_25
// 050   ----------------------------------------
        BYTE   PATT
         POIN2  Manafields_2_24
// 051   ----------------------------------------
        BYTE   PATT
         POIN2  Manafields_2_27
// 052   ----------------------------------------
        BYTE   PATT
         POIN2  Manafields_2_24
// 053   ----------------------------------------
        BYTE   PATT
         POIN2  Manafields_2_25
// 054   ----------------------------------------
        BYTE   PATT
         POIN2  Manafields_2_24
// 055   ----------------------------------------
        BYTE   PATT
         POIN2  Manafields_2_25
// 056   ----------------------------------------
Manafields_5_56:
        BYTE   W12
        BYTE           N24     Cn5   v096
        BYTE   W24
        BYTE                   Dn5   v092
        BYTE   W24
        BYTE           N11     Cn5
        BYTE   W12
        BYTE           N24     Bn4
        BYTE   W24
        BYTE   PEND
// 057   ----------------------------------------
        BYTE   PATT
         POIN2  Manafields_5_56
// 058   ----------------------------------------
Manafields_5_58:
        BYTE   W12
        BYTE           N24     Cn5   v092
        BYTE   W24
        BYTE                   Dn5   v088
        BYTE   W24
        BYTE           N12     Cn5   v092
        BYTE   W12
        BYTE           N24     Bn4   v084
        BYTE   W24
        BYTE   PEND
// 059   ----------------------------------------
        BYTE   PATT
         POIN2  Manafields_5_56
// 060   ----------------------------------------
        BYTE   PATT
         POIN2  Manafields_5_58
// 061   ----------------------------------------
        BYTE   PATT
         POIN2  Manafields_5_56
// 062   ----------------------------------------
        BYTE   PATT
         POIN2  Manafields_5_58
// 063   ----------------------------------------
        BYTE   PATT
         POIN2  Manafields_5_56
// 064   ----------------------------------------
        BYTE   FINE

//****************** Track 6 (Midi-Chn.6) ******************//

Manafields_6:
        BYTE   KEYSH   Manafields_key+0
// 000   ----------------------------------------
        BYTE           VOL     40
        BYTE           VOICE   121
        BYTE           N15     Bn0   v100
        BYTE   W36
        BYTE                   Bn0   v104
        BYTE   W03
        BYTE           VOL     0
        BYTE   W44
        BYTE   W01
        BYTE           N03     Bn0   v068
        BYTE   W12
// 001   ----------------------------------------
Manafields_6_1:
        BYTE           N13     Bn0   v100
        BYTE   W36
        BYTE                   Bn0
        BYTE   W24
        BYTE           N16     Bn0   v104
        BYTE   W36
        BYTE   PEND
// 002   ----------------------------------------
        BYTE           N14
        BYTE   W36
        BYTE           N12     Bn0   v108
        BYTE   W48
        BYTE           N02     Bn0   v072
        BYTE   W12
// 003   ----------------------------------------
        BYTE           N14     Bn0   v104
        BYTE   W36
        BYTE           N08
        BYTE   W24
        BYTE           N02     Bn0   v060
        BYTE   W18
        BYTE           N03     Bn0   v092
        BYTE   W18
// 004   ----------------------------------------
Manafields_6_4:
        BYTE           N12     Bn0   v108
        BYTE   W18
        BYTE           N05     Bn0   v100
        BYTE   W18
        BYTE           N10
        BYTE   W18
        BYTE           N05     Bn0   v088
        BYTE   W12
        BYTE                   Bn0
        BYTE   W18
        BYTE                   Bn0
        BYTE   W12
        BYTE   PEND
// 005   ----------------------------------------
Manafields_6_5:
        BYTE           N12     Bn0   v100
        BYTE   W18
        BYTE           N05     Bn0   v088
        BYTE   W18
        BYTE           N11     Bn0   v104
        BYTE   W30
        BYTE           N05     Bn0   v096
        BYTE   W18
        BYTE                   Bn0   v100
        BYTE   W12
        BYTE   PEND
// 006   ----------------------------------------
Manafields_6_6:
        BYTE           N12     Bn0   v104
        BYTE   W18
        BYTE           N06     Bn0   v096
        BYTE   W18
        BYTE           N11     Bn0   v100
        BYTE   W18
        BYTE           N06     Bn0   v096
        BYTE   W12
        BYTE           N05
        BYTE   W18
        BYTE           N06     Bn0   v092
        BYTE   W12
        BYTE   PEND
// 007   ----------------------------------------
        BYTE   PATT
         POIN2  Manafields_6_4
// 008   ----------------------------------------
        BYTE   PATT
         POIN2  Manafields_6_4
// 009   ----------------------------------------
        BYTE   PATT
         POIN2  Manafields_6_5
// 010   ----------------------------------------
        BYTE   PATT
         POIN2  Manafields_6_6
// 011   ----------------------------------------
        BYTE   PATT
         POIN2  Manafields_6_4
// 012   ----------------------------------------
        BYTE   PATT
         POIN2  Manafields_6_4
// 013   ----------------------------------------
        BYTE   PATT
         POIN2  Manafields_6_5
// 014   ----------------------------------------
        BYTE   PATT
         POIN2  Manafields_6_6
// 015   ----------------------------------------
        BYTE   PATT
         POIN2  Manafields_6_4
// 016   ----------------------------------------
        BYTE   PATT
         POIN2  Manafields_6_4
// 017   ----------------------------------------
        BYTE   PATT
         POIN2  Manafields_6_5
// 018   ----------------------------------------
        BYTE   PATT
         POIN2  Manafields_6_6
// 019   ----------------------------------------
        BYTE   PATT
         POIN2  Manafields_6_4
// 020   ----------------------------------------
        BYTE   PATT
         POIN2  Manafields_6_4
// 021   ----------------------------------------
        BYTE   PATT
         POIN2  Manafields_6_5
// 022   ----------------------------------------
        BYTE   PATT
         POIN2  Manafields_6_6
// 023   ----------------------------------------
        BYTE   PATT
         POIN2  Manafields_6_4
// 024   ----------------------------------------
        BYTE   PATT
         POIN2  Manafields_6_4
// 025   ----------------------------------------
        BYTE   PATT
         POIN2  Manafields_6_5
// 026   ----------------------------------------
        BYTE   PATT
         POIN2  Manafields_6_6
// 027   ----------------------------------------
        BYTE   PATT
         POIN2  Manafields_6_4
// 028   ----------------------------------------
        BYTE   PATT
         POIN2  Manafields_6_4
// 029   ----------------------------------------
        BYTE   PATT
         POIN2  Manafields_6_5
// 030   ----------------------------------------
        BYTE   PATT
         POIN2  Manafields_6_6
// 031   ----------------------------------------
        BYTE   PATT
         POIN2  Manafields_6_4
// 032   ----------------------------------------
        BYTE   PATT
         POIN2  Manafields_6_4
// 033   ----------------------------------------
        BYTE   PATT
         POIN2  Manafields_6_5
// 034   ----------------------------------------
        BYTE   PATT
         POIN2  Manafields_6_6
// 035   ----------------------------------------
        BYTE   PATT
         POIN2  Manafields_6_4
// 036   ----------------------------------------
        BYTE   PATT
         POIN2  Manafields_6_4
// 037   ----------------------------------------
        BYTE   PATT
         POIN2  Manafields_6_5
// 038   ----------------------------------------
        BYTE   PATT
         POIN2  Manafields_6_6
// 039   ----------------------------------------
        BYTE   PATT
         POIN2  Manafields_6_4
// 040   ----------------------------------------
        BYTE   PATT
         POIN2  Manafields_6_4
// 041   ----------------------------------------
        BYTE   PATT
         POIN2  Manafields_6_5
// 042   ----------------------------------------
        BYTE   PATT
         POIN2  Manafields_6_6
// 043   ----------------------------------------
        BYTE   PATT
         POIN2  Manafields_6_4
// 044   ----------------------------------------
        BYTE   PATT
         POIN2  Manafields_6_4
// 045   ----------------------------------------
        BYTE   PATT
         POIN2  Manafields_6_5
// 046   ----------------------------------------
        BYTE   PATT
         POIN2  Manafields_6_6
// 047   ----------------------------------------
        BYTE   PATT
         POIN2  Manafields_6_4
// 048   ----------------------------------------
        BYTE   PATT
         POIN2  Manafields_6_4
// 049   ----------------------------------------
        BYTE   PATT
         POIN2  Manafields_6_5
// 050   ----------------------------------------
        BYTE   PATT
         POIN2  Manafields_6_6
// 051   ----------------------------------------
        BYTE   PATT
         POIN2  Manafields_6_4
// 052   ----------------------------------------
        BYTE   PATT
         POIN2  Manafields_6_4
// 053   ----------------------------------------
        BYTE   PATT
         POIN2  Manafields_6_5
// 054   ----------------------------------------
        BYTE   PATT
         POIN2  Manafields_6_6
// 055   ----------------------------------------
        BYTE   PATT
         POIN2  Manafields_6_4
// 056   ----------------------------------------
Manafields_6_56:
        BYTE           N15     Bn0   v100
        BYTE   W36
        BYTE                   Bn0   v104
        BYTE   W48
        BYTE           N03     Bn0   v068
        BYTE   W12
        BYTE   PEND
// 057   ----------------------------------------
        BYTE   PATT
         POIN2  Manafields_6_1
// 058   ----------------------------------------
        BYTE   PATT
         POIN2  Manafields_6_56
// 059   ----------------------------------------
        BYTE   PATT
         POIN2  Manafields_6_1
// 060   ----------------------------------------
        BYTE   PATT
         POIN2  Manafields_6_56
// 061   ----------------------------------------
        BYTE   PATT
         POIN2  Manafields_6_1
// 062   ----------------------------------------
        BYTE   PATT
         POIN2  Manafields_6_56
// 063   ----------------------------------------
        BYTE   PATT
         POIN2  Manafields_6_1
// 064   ----------------------------------------
        BYTE   FINE


//********************** End of Song ***********************//

        ALIGN 4
Manafields:
        BYTE   7                       // Num Tracks
        BYTE   0                       // Unknown
        BYTE   Manafields_pri          // Priority
        BYTE   Manafields_rev          // Reverb

        POIN2   Manafields_grp         

        POIN2   Manafields_0
        POIN2   Manafields_1
        POIN2   Manafields_2
        POIN2   Manafields_3
        POIN2   Manafields_4
        POIN2   Manafields_5
        POIN2   Manafields_6

        
